<?xml version="1.0" standalone="no"?>
<!DOCTYPE svg PUBLIC "-//W3C//DTD SVG 20010904//EN"
 "http://www.w3.org/TR/2001/REC-SVG-20010904/DTD/svg10.dtd">
<svg version="1.0" xmlns="http://www.w3.org/2000/svg"
 width="1333.000000pt" height="1333.000000pt" viewBox="0 0 1333.000000 1333.000000"
 preserveAspectRatio="xMidYMid meet">
<metadata>
Created by potrace 1.11, written by Peter Selinger 2001-2013
</metadata>
<g transform="translate(0.000000,1333.000000) scale(0.100000,-0.100000)"
fill="#000000" stroke="none">
<path d="M3128 10473 c-10 -11 -29 -62 -42 -115 -26 -99 -55 -182 -98 -278
-59 -133 -41 -143 68 -40 183 173 302 221 534 216 154 -4 146 5 154 -178 3
-84 9 -459 12 -833 10 -1032 -4 -1183 -128 -1333 -27 -34 -48 -68 -45 -75 7
-19 202 -27 645 -27 292 0 352 2 352 14 0 7 -16 39 -35 71 -61 102 -60 91 -57
960 1 435 5 924 8 1088 l7 297 71 0 c133 0 273 -43 414 -126 113 -67 187 -127
314 -256 64 -65 122 -118 129 -118 21 0 0 70 -81 265 -43 105 -97 244 -120
310 -24 66 -51 127 -61 136 -19 17 -224 22 -1474 35 -532 6 -551 5 -567 -13z"/>
<path d="M1635 10469 c-223 -28 -496 -132 -655 -250 -184 -135 -276 -294 -288
-494 -8 -156 26 -253 134 -379 83 -97 165 -158 310 -227 166 -80 291 -120 560
-179 415 -90 478 -113 570 -204 58 -59 84 -131 84 -233 0 -56 -3 -65 -39 -110
-98 -125 -250 -211 -436 -249 -104 -21 -369 -29 -510 -15 -115 11 -125 14
-240 70 -238 115 -438 261 -550 401 -60 75 -71 85 -79 71 -13 -20 222 -525
283 -608 l31 -42 77 5 78 6 115 -57 c194 -96 388 -132 655 -122 529 21 970
223 1144 523 19 33 49 84 66 114 54 90 70 158 69 295 0 126 -16 200 -70 322
-35 82 -167 212 -265 263 -152 79 -465 167 -763 216 -418 67 -477 82 -573 143
-147 94 -165 244 -42 355 121 109 414 162 674 122 363 -57 618 -180 880 -426
46 -44 89 -80 95 -80 15 0 12 29 -10 93 -11 31 -20 61 -20 66 0 12 -93 156
-145 224 -37 50 -84 150 -104 222 -13 49 -50 115 -72 128 -12 7 -30 3 -70 -16
-51 -25 -58 -26 -134 -17 -44 5 -114 18 -155 30 -164 46 -420 62 -605 39z"/>
<path d="M5430 10441 c0 -4 21 -21 46 -37 25 -16 60 -52 79 -80 116 -174 140
-410 132 -1284 -5 -541 -13 -730 -37 -843 -19 -93 -68 -177 -151 -263 -44 -44
-79 -87 -79 -96 0 -40 6 -41 708 -49 l677 -9 21 23 c35 37 366 606 359 617 -8
14 -29 2 -142 -82 -195 -145 -420 -265 -549 -294 -113 -25 -202 -11 -189 30 2
6 13 227 25 491 11 264 23 495 26 514 l5 33 142 -4 c231 -8 270 -27 485 -237
71 -70 86 -79 96 -63 9 15 -252 654 -277 679 l-23 24 -31 -29 c-49 -47 -212
-97 -343 -104 l-45 -3 4 238 c2 131 6 302 10 380 l6 142 65 -1 c76 -2 214 -53
308 -113 31 -21 128 -110 214 -199 146 -151 178 -178 178 -151 0 6 -48 124
-106 262 -59 139 -122 290 -140 336 -19 46 -45 103 -58 126 l-25 42 -422 6
c-579 9 -969 9 -969 -2z"/>
<path d="M7613 10414 c-23 -10 -14 -32 30 -69 58 -50 103 -108 123 -161 16
-43 16 -50 -1 -142 -52 -276 -266 -1175 -354 -1482 -111 -389 -178 -525 -335
-680 -36 -35 -66 -70 -66 -77 0 -8 14 -13 38 -14 20 0 125 -6 232 -12 233 -14
360 -11 360 8 0 7 -16 46 -35 86 -23 50 -38 102 -46 159 -11 79 -10 94 15 220
15 74 33 145 41 157 8 12 46 49 85 82 93 80 144 96 305 95 98 0 132 -5 184
-23 77 -27 144 -73 172 -117 11 -18 48 -118 82 -221 64 -198 68 -229 55 -418
l-3 -40 60 -6 c33 -4 243 -10 468 -13 353 -6 408 -5 413 8 4 9 -23 42 -77 93
-129 123 -145 154 -252 487 -52 160 -106 329 -120 376 -13 47 -90 288 -170
535 -198 611 -334 1040 -348 1097 -6 26 -18 53 -26 60 -11 9 -118 13 -416 15
-221 1 -408 0 -414 -3z m370 -791 c25 -49 227 -674 227 -702 0 -27 -111 -84
-198 -101 -114 -23 -253 7 -260 55 -1 11 31 142 72 290 41 149 82 302 91 340
36 158 42 169 68 118z"/>
<path d="M9440 10375 c0 -3 18 -22 41 -42 75 -68 119 -169 159 -368 l22 -110
-12 -660 c-6 -363 -18 -788 -25 -945 -13 -305 -20 -339 -82 -446 -18 -33 -21
-43 -11 -51 37 -30 464 -25 475 5 4 8 1 22 -5 31 -25 34 -65 117 -81 165 -14
45 -16 107 -14 501 2 248 5 460 8 473 9 35 22 26 34 -25 25 -100 334 -1119
348 -1145 13 -27 17 -28 83 -28 38 0 71 3 74 8 12 20 369 1322 387 1411 12 63
22 80 35 60 11 -18 5 -1032 -7 -1136 -13 -116 -36 -185 -89 -263 -23 -34 -38
-66 -34 -70 10 -9 955 -31 986 -22 24 6 23 24 -2 47 -37 34 -79 110 -96 175
-15 58 -16 116 -10 565 8 664 25 1363 35 1506 10 134 28 185 90 252 23 24 41
49 41 55 0 16 -54 20 -460 32 -359 10 -451 8 -476 -12 -7 -5 -15 -25 -19 -46
-16 -89 -225 -943 -235 -963 -7 -12 -16 -17 -21 -12 -9 9 -152 505 -245 847
-26 98 -53 184 -60 191 -8 8 -86 14 -255 18 -287 8 -579 9 -579 2z"/>
<path d="M743 5643 c-29 -2 -53 -7 -53 -10 0 -3 19 -27 43 -53 48 -54 89 -147
113 -261 30 -138 3 -1828 -31 -1994 -19 -89 -43 -149 -86 -211 -54 -79 -53
-79 181 -79 212 0 250 7 250 42 0 8 -14 56 -31 106 -41 118 -45 215 -30 677
14 436 22 584 31 573 4 -4 17 -48 30 -98 86 -339 354 -1241 379 -1275 18 -24
22 -25 153 -28 117 -2 138 0 156 15 15 13 90 223 267 753 135 404 250 739 255
744 16 16 19 -57 25 -645 7 -639 5 -664 -47 -783 -29 -66 -29 -70 -12 -83 10
-7 34 -13 53 -13 20 0 204 -2 409 -4 321 -3 375 -2 388 11 18 18 10 47 -23 87
-33 39 -60 96 -73 148 -6 29 -6 353 1 998 l11 955 24 95 c31 120 62 186 109
239 26 28 35 45 28 52 -14 14 -347 28 -681 29 l-282 0 -10 -22 c-5 -13 -19
-72 -30 -133 -29 -147 -246 -1004 -274 -1079 -13 -33 -27 -61 -33 -63 -10 -4
-109 305 -169 527 -95 355 -187 679 -204 718 -12 27 -28 46 -46 52 -28 11
-692 22 -791 13z"/>
<path d="M4380 5601 c-113 -25 -170 -45 -260 -92 -248 -128 -480 -418 -574
-719 -52 -163 -69 -295 -68 -510 0 -156 5 -215 21 -297 57 -279 180 -505 374
-691 141 -134 251 -194 453 -247 170 -45 453 -52 621 -15 242 53 438 161 564
311 135 159 266 384 309 529 34 115 52 273 52 475 0 181 -1 196 -31 313 -75
292 -175 468 -370 655 -237 225 -426 295 -811 303 -164 3 -209 1 -280 -15z
m347 -347 c30 -14 78 -53 112 -90 139 -148 208 -392 232 -814 16 -282 -7 -574
-57 -729 -28 -84 -100 -200 -144 -231 -47 -33 -138 -60 -204 -60 -115 0 -249
87 -304 197 -70 140 -90 282 -98 718 -6 356 -6 374 15 480 43 212 81 316 156
420 45 64 88 98 154 121 53 19 81 17 138 -12z"/>
<path d="M8718 5613 c-26 -7 -23 -14 23 -58 55 -55 94 -119 115 -190 16 -55
16 -108 11 -630 -11 -948 -24 -1425 -42 -1500 -16 -69 -38 -119 -80 -181 -14
-20 -25 -45 -25 -55 0 -18 29 -19 728 -21 560 -2 732 0 749 9 12 7 46 60 76
120 67 133 243 434 308 527 45 64 65 126 40 126 -4 0 -51 -48 -102 -106 -276
-313 -522 -452 -832 -471 l-110 -6 6 209 c20 619 29 850 33 863 7 21 246 9
349 -18 107 -28 227 -88 297 -147 32 -27 78 -67 103 -88 78 -66 76 -53 -34
239 -40 105 -92 244 -116 309 -25 66 -52 128 -62 138 -26 29 -59 23 -83 -16
-28 -47 -85 -95 -139 -119 -49 -22 -195 -32 -261 -18 l-35 7 -6 379 c-4 229
-3 385 3 392 12 16 61 8 183 -29 215 -65 390 -180 581 -383 64 -69 121 -125
126 -125 19 0 -1 61 -88 269 -47 113 -109 274 -136 356 -57 171 -71 200 -97
215 -19 10 -1445 13 -1483 3z"/>
<path d="M5993 5603 c-33 -6 -28 -24 13 -52 56 -39 157 -154 186 -212 68 -139
77 -279 77 -1164 0 -904 -6 -946 -158 -1087 -39 -36 -71 -70 -71 -76 0 -18 99
-22 625 -23 450 -2 534 0 620 15 228 39 350 78 535 172 162 83 267 162 395
295 117 122 213 307 265 509 27 105 30 134 36 310 9 237 -29 423 -127 629 -58
123 -95 176 -203 294 -107 118 -197 187 -320 247 -167 82 -324 118 -606 140
-128 9 -1220 12 -1267 3z m1219 -308 c104 -22 169 -57 246 -133 132 -131 201
-306 236 -602 29 -243 30 -340 6 -524 -37 -294 -83 -410 -214 -544 -103 -106
-164 -138 -295 -152 -99 -11 -126 -8 -135 15 -5 13 5 824 20 1583 5 280 9 346
21 357 18 19 25 19 115 0z"/>
<path d="M10647 5604 c-3 -3 19 -28 47 -57 59 -59 116 -168 142 -267 15 -59
16 -147 11 -1010 -6 -1017 -5 -998 -58 -1103 -12 -23 -48 -69 -80 -103 -63
-64 -70 -79 -41 -86 9 -2 301 -5 647 -7 448 -2 642 0 672 8 36 10 52 24 103
91 129 169 289 342 488 528 283 265 268 250 255 263 -10 10 -21 6 -50 -13 -21
-14 -56 -37 -78 -51 -22 -13 -83 -60 -136 -103 -338 -278 -428 -336 -632 -410
-135 -50 -275 -68 -312 -40 -18 13 -18 35 -11 572 14 1103 22 1380 45 1466 28
108 62 169 133 238 59 58 60 60 37 68 -25 9 -1173 24 -1182 16z"/>
</g>
</svg>
