<svg xmlns="http://www.w3.org/2000/svg" data-name="Layer 1" viewBox="0 0 1366 768"><path d="M1272.43 486.29a12.54 12.54 0 0 0 2 0c3.51-.58 7 0 10.46.31a20.24 20.24 0 0 1 6.2 1.69c4.35 1.91 8.66 3.88 12.31 7.11a25.43 25.43 0 0 1 7.38 11.2 36.41 36.41 0 0 1 1.46 14.79 29.13 29.13 0 0 1-3.69 11.58 25.06 25.06 0 0 1-4.08 5.83 9.9 9.9 0 0 0-1.07 1.32c-.72 1-.44 1.72.76 1.92l6 1c5.14.88 9.61 3.41 13.8 6.25a27.21 27.21 0 0 1 8.82 9.76 37.7 37.7 0 0 1 4.39 15.24 21.42 21.42 0 0 1-1.87 9.94 43.36 43.36 0 0 1-12.74 16.92 58.9 58.9 0 0 1-21.08 10.61c-9.49 2.7-19.17 4.5-28.78 6.63-7.73 1.72-15.49 3.34-23.25 4.93-3.32.68-6.68 1.16-10 1.79-4 .75-8 1.52-12 2.36a71 71 0 0 1-10.77 1.34.68.68 0 0 1-.66-.93c.5-.88 1-1.75 1.61-2.57a19.27 19.27 0 0 0 3.26-5.92 17.18 17.18 0 0 0 .33-8.07c-1.42-6.87-18-79.47-20.75-89.65a29.89 29.89 0 0 0-7.11-12.61 24.62 24.62 0 0 0-4.34-3.22c-.84-.57-1.79-1-2.63-1.54a.63.63 0 0 1 0-1.12 21.25 21.25 0 0 1 4.37-1.77c8.18-1.76 16.37-3.5 24.6-5 7.79-1.46 15.39-3.7 23.17-5.15 2-.37 4-.67 6-1 4.89-.86 9.79-1.71 14.67-2.63a74.6 74.6 0 0 1 13.23-1.34zM1252.21 506a71.8 71.8 0 0 0-7.36 1.07c-3 .73-4 0-2.91 4.43 2.71 11.09 5.34 22.2 8 33.3a12.39 12.39 0 0 0 .63 1.94 1.6 1.6 0 0 0 1.86 1.12c5.21-.87 10.09-2.5 14.16-6a13.24 13.24 0 0 0 4.39-7.1 22.33 22.33 0 0 0 .43-10.07 33 33 0 0 0-3.46-9.16 17.51 17.51 0 0 0-4.37-5.57 18.42 18.42 0 0 0-11.37-3.96zm36.11 77.49a10.58 10.58 0 0 0 0-1.31c-.43-4.47-1.64-8.64-4.73-12.08a11.22 11.22 0 0 0-8.55-4.12 73.39 73.39 0 0 0-11.47.86c-2 .28-4 .81-6 1.2-1.45.29-2 .63-1.65 2.33.83 4.21 6.31 29 6.77 31.1.22 1 .65 1.34 1.66 1.3a11.21 11.21 0 0 0 2.68-.34q4.87-1.44 9.7-3c3.69-1.21 6.35-3.7 8.67-6.75a13 13 0 0 0 2.92-9.21zM510.26 556.68a42.66 42.66 0 0 0-.38-5.07 14.86 14.86 0 0 0-3.4-7.31c-.34-.38-.71-1-.59-1.43s.88-.65 1.36-.65c2.38 0 4.75.1 7.13.22 1.35.07 2.7.25 4.05.38l12.83 1.18c.79.07 1.59.05 2.37.16a11.48 11.48 0 0 1 2.64.56c1.94.77 2.15 2.08.68 3.65-.31.33-.65.64-1 .94a46 46 0 0 0-11.16 16.45c-1.46 3.47-11 42.61-13.4 51.91-3 11.39-12.63 46.76-13.58 50.14a2 2 0 0 1-2 1.55c-1.69 0-23.89-1.81-26.37-2a1.61 1.61 0 0 1-1.54-1.52c-.47-2.45-8.57-39.36-10.58-48.42-.83-3.75-1.61-7.51-2.43-11.27a1.51 1.51 0 0 0-.48-.86c-.21-.16-.78-.21-.88-.07a5.67 5.67 0 0 0-.73 1.5c-2 6-17.54 48.18-20.08 54.84-.61 1.6-.8 1.76-2.39 1.78a5.29 5.29 0 0 1-.68 0c-5.28-.62-29.09-3.2-31.68-3.5-1.45-.17-1.95-.87-1.87-2.28.16-2.94.33-5.87.42-8.81.76-.61 1.76-77.53-3.58-96.12a44.85 44.85 0 0 0-2.35-7.77 51.18 51.18 0 0 0-3.42-7 49.38 49.38 0 0 0-3.43-4.62 17.5 17.5 0 0 1-1.15-1.67 1 1 0 0 1 .56-1.39c1.67-.21 3.29-.72 5-.43 5.47.92 11 1.1 16.54 1.62 1.8.17 3.59.47 5.38.69 5.61.68 11.22 1.34 16.83 2 1.46.18 2.91.44 4.36.68s1.8.64 2.07 2.23a93.26 93.26 0 0 1 .75 10.49c.29 5.42.75 10.83 1.14 16.25 0 .34.07.68.08 1q.4 9 .79 18l.68 15.61a3.94 3.94 0 0 0 .24 1 .33.33 0 0 0 .24.19 1.12 1.12 0 0 0 .6-.12 1.15 1.15 0 0 0 .38-.55c3.11-9.34 15.19-47.5 16.22-51.08.72-2.5 1.55-5 2.3-7.45a2.81 2.81 0 0 1 3-2.24c.91 0 1.81 0 2.72.05 5.08.27 10.13.9 15.17 1.6.67.09 1.32.34 2 .48a2.12 2.12 0 0 1 1.64 1.55c.31 1 .61 1.95.85 2.93 1.39 5.83 10.56 48.65 12 55.75.44 2.22.81 4.45 1.23 6.68a16.78 16.78 0 0 0 .44 2 1.15 1.15 0 0 0 .6.71c.18 0 .61-.28.7-.53.53-1.49 1.08-3 1.48-4.51 2.57-9.74 9.43-35.8 10.44-39a27.12 27.12 0 0 0 1.24-9.1zM742.89 439.44a36.12 36.12 0 0 0 3.38 14.1c1 1.95.19 3.33-1.87 3.68-6.18 1.08-12.42.57-18.63.62a8 8 0 0 1-1.35-.11c-1.58-.26-2-1.39-.92-2.69a26.67 26.67 0 0 0 5.76-13.56c.2-1.45.49-2.91.55-4.37.26-6.67.46-13.35.66-20 .06-2 0-4.08.07-6.12.87-21.18.75-42.36.7-63.55a36.35 36.35 0 0 0-3.66-15.06 17.16 17.16 0 0 0-4.82-6.07c-.19-.16-.22-.56-.24-.85 0-.05.39-.19.6-.2 1.7-.06 3.4-.06 5.1-.14 1.92-.09 24.66-.11 33.26.14a25.49 25.49 0 0 1 3.36.39 3.41 3.41 0 0 1 2.79 2.23c.64 1.69 1.3 3.38 1.79 5.12 2.81 10 5.68 20 8.27 30.13 1 3.72 2 7.42 3.09 11.09q2.15 7 4.33 13.94c.37 1.18.72 2.37 1.13 3.54a.67.67 0 0 0 .52.35.7.7 0 0 0 .53-.36c1-2.88 2.16-5.72 2.94-8.66 2.14-8.1 4.1-16.25 6.15-24.37 1.47-5.82 3.06-11.61 4.43-17.45 1-4.29 1.78-8.64 2.62-13 .33-1.7.64-2.18 2.35-2.33 4.27-.38 43.94.72 46.37 1.23 1.42.3 1.53.88.49 1.75a15.92 15.92 0 0 0-5 7.56c-1 3.13-1.83 6.3-2.61 9.49-.26 1.08-1.12 91.33-1.24 94.65a19 19 0 0 0 4.57 13.61 3.84 3.84 0 0 1 1.29 2.31 1.63 1.63 0 0 1-1.43 1.94 13.78 13.78 0 0 1-1.7.07h-11.9a9.41 9.41 0 0 1-2-.14 18.79 18.79 0 0 0-3.69-.1c-6.67-.22-13.32.69-20 .23a9.86 9.86 0 0 1-2.31-.44 1.31 1.31 0 0 1-.91-1.87 22.31 22.31 0 0 1 1.07-2.49c2.16-4.14 2.7-8.6 2.68-13.17 0-12.58-.62-47.47-.71-52.34v-5.78c0-.51-.15-1.37-.43-1.46-.79-.25-.75.62-.92 1.08-.84 2.34-1.61 4.71-2.45 7.05-2.58 7.26-15.28 46.08-17.74 53.14-1.49 4.27-3 8.53-4.42 12.83a3.58 3.58 0 0 1-3.71 2.82c-3.51 0-7 0-10.54.08a3.12 3.12 0 0 1-3.31-2.33c-.34-1-.76-1.9-1.06-2.87-4.25-13.51-17.62-59-18.72-65.64 0-.29-.27-.76-.46-.78-.72-.08-.55.57-.57.95-.07 1.13 0 2.27-.1 3.4-.32 5.99-1.67 45.07-1.43 48.78zM483.51 455.11a12.93 12.93 0 0 1-2-.19 1 1 0 0 1-.74-1.29 11.08 11.08 0 0 1 1-1.77 24.05 24.05 0 0 0 4-10.68c.39-2.71 2-88.23 1.92-93.66a21.23 21.23 0 0 0-.56-3.68q-.65-3.32-1.39-6.63c-.22-1-.51-2-.8-2.95-1.51-5.09-3.64-9.79-8.28-12.87-.2-.13-.22-.52-.33-.79a2.49 2.49 0 0 1 .64-.18c4.08 0 8.16-.12 12.24 0 9.06.15 18.1.9 27.16.68h.68a2.28 2.28 0 0 1 2.53 1.78c.43 1.52.86 3 1.25 4.58 1 3.95 8.44 30.78 11.2 40.23.67 2.28 1.41 4.54 2.16 6.8.08.25.42.44.67.6 0 0 .35-.24.43-.41a17.62 17.62 0 0 0 .68-1.92c1.09-3.92 10.65-43.72 11.55-48.15.41-2 .8-2.44 2.88-2.67a43.72 43.72 0 0 1 4.41-.17c2 0 4.08 0 6.12.07 5 .09 10 0 14.94.41s10.19.19 15.29.33a31.39 31.39 0 0 1 4.35.59.56.56 0 0 1 .35 1c-.3.34-.62.66-1 1a18.56 18.56 0 0 0-5.53 10.32c-.81 4.33-2.57 102.35-2.13 105.82.61 4.78 2 9.3 5.72 12.75a9.52 9.52 0 0 1 1.09 1.29.71.71 0 0 1-.51 1 23.53 23.53 0 0 1-2.37.14c-5.1 0-45.91-.79-47.81-1-1-.11-1.08-.35-.47-1.34a23.36 23.36 0 0 1 1.5-2.26c3-3.79 4.15-8.13 4.7-12.88.61-5.32.39-10.62.41-15.94 0-7.37.08-14.73.16-22.1 0-1.13.22-2.25.3-3.38a15.86 15.86 0 0 0 .15-3.38 78.91 78.91 0 0 1-.45-10.85c0-1-.08-2-.19-3.05a2.57 2.57 0 0 0-.43-.82c-.2.19-.53.36-.59.59-.47 1.86-.89 3.74-1.34 5.61-3.07 12.75-13.76 50.89-15.61 57.31-1 3.47-1.86 7-2.82 10.47-.55 2-.86 2.22-2.78 2.29h-2.38c-2.63.05-3.29.07-4.29-3.27-3.42-11.38-14.24-47.6-16.27-54.32-.46-1.51-.8-3.05-1.22-4.57a.83.83 0 0 0-.46-.38c-.22.17-.51.4-.54.64-.18 1.57-.34 3.15-.42 4.72a21 21 0 0 0 0 3.73 35 35 0 0 1 0 7.43c-.32 3.94-.21 7.92-.25 11.89 0 4.65 0 9.3-.12 13.94a26 26 0 0 0 4.42 16.09c.22.39.58.7.83 1.07 1 1.43.54 2.28-1.26 2.47-1 .11-2 .1-3.06.1-2.71 0-14.27-.17-17.33-.19zM1044.91 250.58c-5 .2-10.91-1.8-16.49-5.08a4.48 4.48 0 0 1-1-.86c-3.74-4.19-6.93-8.65-7.82-14.42-.56-3.57-1.24-7.14-2.06-10.66a43.45 43.45 0 0 0-4-10.81 19.25 19.25 0 0 0-5.36-6.06 8 8 0 0 0-1.78-1c-1.33-.57-2.2-.18-2.47 1.32-.49 2.67-3 24.47-3.06 27.63a18.45 18.45 0 0 0 2.65 10.73 1.52 1.52 0 0 1 0 1.19c-.06.18-.61.28-.91.24-4.38-.53-8.75-1.14-13.13-1.64-5.17-.59-10.35-1.09-15.53-1.64-1.8-.19-3.59-.46-5.39-.66l-13.83-1.49a.64.64 0 0 1-.33-1.06 15.1 15.1 0 0 1 1.77-1.58 22.13 22.13 0 0 0 9-14c.89-4.08 11.33-88.61 11.52-90.52a18.72 18.72 0 0 0-2.3-10.48 33 33 0 0 0-6.45-8.28c-.24-.24-.55-.41-.79-.64-1.31-1.22-2.6-2.45-3.9-3.68 1.85-.94 3.67-.12 5.51.06 5.4.54 10.81 1 16.21 1.61 4.61.51 9.2 1.18 13.8 1.71 3 .35 6.09.53 9.12.89 4.94.58 9.88 1.15 14.8 1.88 4.14.61 8.26 1.38 12.36 2.19a71.81 71.81 0 0 1 18 5.91 41.17 41.17 0 0 1 15.68 13.22 23.24 23.24 0 0 1 2.23 4.19c1.17 2.7 2.38 5.4 3.28 8.2 3.15 9.81 2.7 19.31-2.09 28.65-5.33 10.38-13.91 16.76-24.41 21-1.47.59-3 1.14-4.4 1.79a1.72 1.72 0 0 0-.75 1c0 .13.37.55.65.66 2.71 1.1 4.67 3.13 6.69 5.13 2.58 2.56 4 5.75 5.21 9.06.81 2.23 1.34 4.56 2 6.84s1.38 4.55 2.14 6.8a8.89 8.89 0 0 0 1.21 2.41c2.13 2.88 5.12 3.8 8.73 2.57a21.5 21.5 0 0 0 9.51-6.33c1.92-2.23 3.72-4.56 5.61-6.82a10.62 10.62 0 0 1 1.73-1.59 4.82 4.82 0 0 1 1.21-.49 4.44 4.44 0 0 1 .12 1.6 46.25 46.25 0 0 1-10.92 18.19 41.46 41.46 0 0 1-18.69 11.27c-6.69 1.93-6.79 1.74-12.88 1.85zM1012 182.93c.29 0 1.08 0 1.87-.09 6.85-.42 11.91-3.45 15.29-9.64a51.14 51.14 0 0 0 4.55-12.72 32.09 32.09 0 0 0 .75-6.72 47.27 47.27 0 0 0-.5-5.39 23.88 23.88 0 0 0-5.78-13.5c-2.74-3.25-6.45-4.89-10.38-6.09-1.42-.43-2.57-.05-2.85 1.92s-6.76 42.63-7.45 47.89c-.62 4.34-.5 4.36 4.5 4.34zM1006.85 459.77c-3.84-.06-7.68-.36-11.52-.59-.29 0-.73-.22-.79-.42a1 1 0 0 1 .34-.86c1.44-1.27 2.93-2.49 4.38-3.76a16.21 16.21 0 0 0 5.37-10.31c2.37-5.84 1.16-86.79.61-91-.63-4.92-1.49-9.83-4.34-14.14a35.77 35.77 0 0 0-8.92-9.21c-.46-.33-.92-.66-1.34-1-.15-.13-.31-.48-.24-.57a1.2 1.2 0 0 1 .69-.54 79.65 79.65 0 0 1 8.44-.62c3.83.07 53.34.26 56.6.57 3.94.37 7.87.78 11.78 1.35 8.82 1.3 17.18 3.91 24.7 8.9a42.14 42.14 0 0 1 10.24 9.32c.68.88 1.56 1.62 2.31 2.44a39.75 39.75 0 0 1 3.36 3.79 66 66 0 0 1 10.85 27.24 64.16 64.16 0 0 1 .94 14.54c-.11 1.92-.43 3.82-.66 5.73a68.89 68.89 0 0 1-3.92 15.77 81.09 81.09 0 0 1-7.91 15.37 2.71 2.71 0 0 1-.39.55c-2.31 2.13-4.16 4.72-6.59 6.73s-4.82 4.1-7.35 6a51.8 51.8 0 0 1-5.74 3.6c-2.07 1.16-4.24 2.13-6.34 3.23-5.78 3-12.05 4.61-18.35 6a83.47 83.47 0 0 1-20.54 2.09c-5.3-.24-29.1-.1-35.67-.2zm38.82-18.92c0 1.31.56 1.78 1.91 1.85a9.29 9.29 0 0 0 1.36 0c1.8-.17 3.59-.37 5.39-.53a16.79 16.79 0 0 0 8.27-2.8 32.7 32.7 0 0 0 8.78-8.87 42.73 42.73 0 0 0 6.13-16.05c.69-3.78 1.07-7.6 1.55-11.42a84.55 84.55 0 0 0 .16-13.21c-.11-3.49-.74-7-1.06-10.44a62.09 62.09 0 0 0-6.08-22.11 30.93 30.93 0 0 0-9.53-10.86c-3.18-2.4-6.95-3.21-10.74-3.91s-4.67-.14-4.76 3.86c-.13 4.94-1.44 92.46-1.39 94.5zM357 171c5.07-1.27 15-6 13.47-11.73-.22-.6-6.4-31.87-6.6-33.21a11.29 11.29 0 0 0-3.56-6.78c-1.4-1.3-3-2.37-4.5-3.58a5.69 5.69 0 0 1-.79-1 5.57 5.57 0 0 1 1.19-.5c2.67-.45 47.17-6.12 51.44-6.61a28.12 28.12 0 0 1 3.39-.07.66.66 0 0 1 .5.34.73.73 0 0 1-.16.6 5.14 5.14 0 0 1-.78.64 14.44 14.44 0 0 0-4.5 5.86c-2.23 5.09-3.28 10.24-2.14 15.86 1 5.09 12.76 80.66 13.8 85.4a30.47 30.47 0 0 0 7.07 13.39A28.54 28.54 0 0 0 429 233c.27.21.55.41.8.63a.62.62 0 0 1-.16 1.07c-1.1.26-48.87 5.48-50.56 5.51-1 0-1.28-.52-.73-1.28a23.47 23.47 0 0 0 4-16.05c-.71-3.66-5.55-29.35-5.56-29.79 0-2.26-1.48-3.51-3.26-4.39-3.15-1.57-6.35-2.91-10-3a16.16 16.16 0 0 0-7.22 1.62 21.69 21.69 0 0 0-6.3 4.54 6.19 6.19 0 0 0-1.68 5.61c.24 1.68 4.45 24.37 6.31 34a9.45 9.45 0 0 0 2.65 5c1.37 1.35 2.72 2.73 4.07 4.1.39.39 1 .86.56 1.41a2.3 2.3 0 0 1-1.43.69c-2 .29-42 5.55-48.1 6.34-.9.12-1.78.34-2.68.45a3.09 3.09 0 0 1-1-.2c.08-.3.07-.69.26-.89q1.28-1.36 2.65-2.64a19.83 19.83 0 0 0 5.18-7.87 8.69 8.69 0 0 0 .34-5c-1.35-6.31-18.75-91.1-19.35-93-2.09-6.71-6.27-11.42-13.11-13.55a13.4 13.4 0 0 1-2.06-1c.39-1.19 3.47-1.23 4.26-1.38 4.44-.83 47-7 49.93-7.37a24.87 24.87 0 0 1 2.7-.19.56.56 0 0 1 .51.92c-1.12 1.7-2.38 3.32-2.83 5.38a23.36 23.36 0 0 0-.66 9c.87 5.13 5.78 34 6.24 36.1C344 172 353 172 357 171zM176.14 146.24a2.44 2.44 0 0 1 2-2.73c1.53-.37 3.05-.82 4.6-1.13 2.88-.57 5.79-1 8.65-1.63 1.63-.37 2.77-.28 3.66 1.37 1.07 2 2.49 3.78 3.64 5.73q6.12 10.4 13.08 20.26c2 2.87 3.88 5.86 5.9 8.73 4.75 6.77 9.55 13.5 14.32 20.25 1.31 1.85 2.6 3.71 3.93 5.54a1.07 1.07 0 0 0 .86.36c.23 0 .41-.42.59-.67a.6.6 0 0 0 .06-.33c0-7.46 3.54-61.29-4.43-66-.58-.34-3-1-.94-2.67.44-.35 28.07-5.15 29-5.18a2.17 2.17 0 0 1 1.51.6c.54.59-.18 1-.53 1.37q-1.51 1.61-3.08 3.17a21.16 21.16 0 0 0-5.22 8.63c-1.2 3.68-1.86 112.87-1.86 113.44 0 2.56-.18 3.06-3 3.37-3.26.36-9.93 1.67-10 1.68-4.42.46-4.44.63-7.12-3S189.52 200.93 188 199a3.87 3.87 0 0 0-1.31-1c-.17-.09-.76.16-.78.3-.15 1.12-2 64.23-2.19 67.17-.17 2.72-1.34 4.17-4.06 4.59a98.65 98.65 0 0 0-13.31 2.6 1.63 1.63 0 0 1-2-.85c-3.54-6.18-46-77.88-49.55-84.15a11.58 11.58 0 0 0-1.67-2.11q-3.14-3.34-6.33-6.61c-5.53-5.67-11.63-10.46-19.51-12.41-2.08-.51-4.23-.72-6.34-1.13-1.09-.21-2.15-.57-3.23-.86A4.82 4.82 0 0 1 81 163c1.78-.3 60.16-11.93 60.71-11.91a3.1 3.1 0 0 1 1.9.42c.62.6-.05 1.24-.51 1.71a3.37 3.37 0 0 0-.89 2.49c0 2.38-.08 4.76.05 7.14a7.43 7.43 0 0 0 .88 2.88c1.4 2.72 25.75 46 28.29 50.68a2.58 2.58 0 0 0 .92.95 1 1 0 0 0 .86-.13c.79-1.23 2.96-65.55 2.93-70.99zM863.85 392.69c.46-4.25.75-8.66 1.45-13a65.79 65.79 0 0 1 23.43-42.08 46.11 46.11 0 0 1 19.64-9.67 49.94 49.94 0 0 1 12.44-1.49c4.41.1 8.83-.12 13.2.8 3.65.77 7.38 1.24 11 2.22a43.1 43.1 0 0 1 14.68 7.53 76.76 76.76 0 0 1 13.42 13.39 41.25 41.25 0 0 1 3.89 6 67.34 67.34 0 0 1 6.16 15.05c.64 2.4 1.2 4.82 1.84 7.22 1 3.89.48 7.9 1.18 11.8-1 4.57.07 9.28-1 13.85-.47 2-.41 4.06-.82 6a39.71 39.71 0 0 1-1.87 6.85 71 71 0 0 1-7.93 15c-3.1 4.33-6.08 8.73-9.9 12.45a43.84 43.84 0 0 1-16.28 10.2c-6.43 2.22-13 3.93-19.9 3.8-3.25.75-6.53.1-9.79.09-5.49 0-10.71-1.61-15.93-3.15a42.5 42.5 0 0 1-17.39-10.25 70.75 70.75 0 0 1-8.24-9 64.85 64.85 0 0 1-9.42-18.36 59.52 59.52 0 0 1-3.35-19.65 53.26 53.26 0 0 0-.51-5.6zm81.67 5.61h.14c-.31-5.76-.35-11.54-1-17.26a102.93 102.93 0 0 0-3.54-17.94 36.19 36.19 0 0 0-6.85-13.16 23.48 23.48 0 0 0-5.9-5 9.57 9.57 0 0 0-9.1-.44 13.46 13.46 0 0 0-5 3.5 33.53 33.53 0 0 0-6.22 10.43c-2.29 6-3.18 12.25-4.47 18.44a19.42 19.42 0 0 0-.14 4.06c0 1.46.16 2.92.14 4.38s-.25 3.16-.2 4.74c.12 3.72.42 7.44.53 11.17.17 5.53-.28 11.07.75 16.58.77 4.11 1.36 8.25 2.86 12.19 1.88 4.94 4.8 9 9.79 11.14a17.86 17.86 0 0 0 4.41 1.69 19.85 19.85 0 0 0 12.74-2.59 6.5 6.5 0 0 0 1.82-1.5 30.52 30.52 0 0 0 5.63-9.22 52 52 0 0 0 2.85-15.59c0-.79.12-1.58.2-2.36.16-1.68.43-3.36.48-5 .13-2.83.07-5.56.07-8.26zM69.5 583.74c.12-5.1 0-10.23-1.58-15.11a22 22 0 0 0-5.55-8.81 2.63 2.63 0 0 0-1.85-.56 3.94 3.94 0 0 0-3.62 2.67c-1.4 4.64-5.9 22.07-6.54 27.56a16.59 16.59 0 0 0-.15 6.06 15.87 15.87 0 0 1 .17 3.73c0 1.72-.47 2.15-2.3 2.13a15.27 15.27 0 0 1-3-.32q-7.14-1.52-14.26-3.14c-7-1.61-14-3.53-21.15-4.73-1.71-.29-2.63-.9-2.39-1.45.42-.94 1.37-1.11 2.21-1.38a18.87 18.87 0 0 0 5.76-2.83c2.48-1.88 4-4.35 5.53-7.12C25 573 44.61 480.93 43.41 473.92a17.87 17.87 0 0 0-3.5-7.65 6.28 6.28 0 0 1-.54-1.15 4 4 0 0 1 1.48-.46 47.65 47.65 0 0 1 5.37.81c4.52 1 9 2.16 13.54 3.21 4 .92 7.94 1.77 11.92 2.66 1.43.32 2.89.57 4.3 1A117 117 0 0 0 87.53 475a18 18 0 0 1 5.41 1.91 56.35 56.35 0 0 0 6.24 2.66 16 16 0 0 1 4.67 2.69c3 2.58 6.32 4.77 8.6 8.09a1.89 1.89 0 0 0 .23.25 15.42 15.42 0 0 1 4.58 7.75 12.39 12.39 0 0 0 1.13 2.46 31.71 31.71 0 0 1 3.41 13.37 5.83 5.83 0 0 0 .11 1.69c.78 2.49.34 4.95-.2 7.38s-1.23 5.05-1.94 7.55a16.33 16.33 0 0 1-1.2 2.8c-.65 1.31-1.25 2.65-1.89 3.94a25.37 25.37 0 0 1-4.23 6.1 43.7 43.7 0 0 1-10.72 8.72c-1.88 1-3.6 2.3-5.71 2.92a10.15 10.15 0 0 0-2.64 1.52.88.88 0 0 0-.13 1.45c.38.42.8.8 1.21 1.19 11.52 6.59 8.19 29.2 8.27 30.78a3.67 3.67 0 0 0 2.66 3.5 7.31 7.31 0 0 0 5.93.13 19.52 19.52 0 0 0 5.26-3c1.36-1.25 2.13-3.15 3.12-4.79.29-.48.37-1.08.63-1.57s.37-1.49 1.19-1.34c.37.07.62.86.89 1.35.55 1 .12 2 0 3-.19 1.45-.44 2.89-.68 4.33a12.81 12.81 0 0 1-.45 2.32 28.66 28.66 0 0 1-6.43 10.26c-11.87 11.65-26.26 8.24-28.16 8-5.15-.72-10-2.14-13.29-6.58a18.11 18.11 0 0 1-3.34-8.44 70.39 70.39 0 0 1-.56-13.65zm21.5-78.8a24.17 24.17 0 0 0 0-3.73c-.42-2.65-.49-5.33-1.92-7.82-1.88-3.28-4.94-4.89-8-6.52a2.74 2.74 0 0 0-4 1.46c-.48 1-11.93 42.56-12.61 44.72-.54 1.73-1.06 3.46-1.59 5.19a5 5 0 0 0 .29 3.31 1.8 1.8 0 0 0 1.74 1.34 26.74 26.74 0 0 0 7.75-.57 10.86 10.86 0 0 0 4.26-2 35.2 35.2 0 0 0 7.1-7.69 9.13 9.13 0 0 0 1-2.11c1-3.11 2-6.23 3-9.35 1.76-5.28 3.25-10.6 2.98-16.23zM738.11 164.47c0 3.08-.12 6.49 0 9.88a70.89 70.89 0 0 0 3.15 18.65 45.5 45.5 0 0 0 5.52 11.25 13.35 13.35 0 0 0 6.35 4.93 30.38 30.38 0 0 0 5.54 1.59 10.56 10.56 0 0 0 7.18-1.45 15.87 15.87 0 0 0 6.59-7.58 56.71 56.71 0 0 0 4.46-17 158.87 158.87 0 0 0 .66-16.28 20.65 20.65 0 0 0-.16-2.7 1.08 1.08 0 0 0-1.19-1 5.35 5.35 0 0 0-1.34.19 36 36 0 0 0-10.87 4.87 20.29 20.29 0 0 0-2.78 2.47c-1.53 1.51-3 3.1-4.53 4.6a1.31 1.31 0 0 1-1.17.3c-.28-.18-.39-.77-.41-1.19-.06-1.12.47-18.5.58-21s.88-3.21 3.36-3.29 46.6 1.7 52.94 2c3.72.16 3.89.36 3.34 3.94q-.56 3.69-.88 7.41c-.34 4.06-.53 8.13-.89 12.18a75.9 75.9 0 0 1-2.31 14.76 44.52 44.52 0 0 1-25 27.11 67.62 67.62 0 0 1-62.86-6.59 64.38 64.38 0 0 1-12.54-12.37 62.68 62.68 0 0 1-8.65-15.73 45.57 45.57 0 0 1-3.06-14.9c-.12-2.48-.64-5-.46-7.43a88.51 88.51 0 0 1 3-19.05 95.28 95.28 0 0 1 4.62-12.77 68.62 68.62 0 0 1 15.39-21 56.29 56.29 0 0 1 16.18-11.08 46.85 46.85 0 0 1 19.39-4.45c3.29 0 6.58 0 9.86.1 9.75.36 18.73 3 26.6 9a10.06 10.06 0 0 0 1.42.92c2.46 1.27 4.87 1.77 7.27-.24a1.46 1.46 0 0 1 2.49.56 17.22 17.22 0 0 1 1.21 4.2c.65 4.93 4.63 34.68 5.25 39a.88.88 0 0 1-.47.72 1.06 1.06 0 0 1-.86-.33c-1.72-2-6.47-13.27-8.06-16.39a56.69 56.69 0 0 0-8.06-11.73 35.8 35.8 0 0 0-14.49-9.76 37.66 37.66 0 0 0-17.7-2.16 17.82 17.82 0 0 0-14 8.51 47.32 47.32 0 0 0-4.88 10.44 85.75 85.75 0 0 0-3.44 14.86 126.4 126.4 0 0 0-1.29 23.03zM677.33 91.9h14.28a14.79 14.79 0 0 1 2 .16.68.68 0 0 1 .42.45.69.69 0 0 1-.15.59c-4.27 3.43-6.52 8.12-7.82 13.24a50.43 50.43 0 0 0-1.45 17.86c.5 4.64 3 73.28 3.35 78.7a18.48 18.48 0 0 0 4.43 11.15 32.77 32.77 0 0 0 6.64 6.27 9.72 9.72 0 0 1 1.56 1.28c.1.1-.07.74-.19.76a14.14 14.14 0 0 1-2.35.25c-3.51 0-7 0-10.54.1-4.19.08-8.37.23-12.56.34h-3.4a4.29 4.29 0 0 1-2.83-1c-1.23-1-2.49-2-3.69-3q-2.58-2.21-5.09-4.51a57.15 57.15 0 0 1-9.16-10.9c-3.66-5.59-7.19-11.27-10.71-16.94q-8.06-13-16-26.05c-2.58-4.26-5-8.64-7.45-13-.39-.68-.81-1.36-1.26-2a.7.7 0 0 0-.59-.21.59.59 0 0 0-.37.43 25.71 25.71 0 0 0 .07 2.72c.57 5.85 3.18 46.83 3.4 50.78a45.05 45.05 0 0 0 3.64 15.47 25 25 0 0 0 4.53 6.75 9 9 0 0 1 1.08 1.3c.08.14-.15.55-.33.74s-.43.1-.65.11c-5.77.09-11.5 1-17.29.76-2.15-.09-4.3.1-6.46.1-1.36 0-2.72 0-4.07-.14a.63.63 0 0 1-.55-1 5.91 5.91 0 0 1 .88-1.44C608 200 599.71 121.9 599.16 119a22.44 22.44 0 0 0-2.39-6 79.88 79.88 0 0 0-4.19-7 24.91 24.91 0 0 0-11.42-9.31c-.63-.26-1.27-.48-1.9-.74s-1.47-.41-1.22-1.28 1.06-.74 1.73-.76c2.95-.07 37.72-1 38.7-1.19 2.42-.57 4.07.24 5.49 2.27 3.43 4.92 45.69 67 46 67.36a21 21 0 0 0 2.49 3A43.48 43.48 0 0 0 673 157c-.18-4.07-1.69-42.58-2.26-44.68-.82-3.06-1.44-6.18-2.35-9.21a15.92 15.92 0 0 0-7.12-9.59 2.61 2.61 0 0 1-.74-.67 1.07 1.07 0 0 1-.08-.63c0-.07.16-.17.25-.18.9-.07 1.8-.17 2.7-.17 4.6-.02 13.93.02 13.93.03zM470 219.11c.25 2.24.44 4.5.77 6.73a11.59 11.59 0 0 0 .91 3.24c1.09 2.29.29 2.14-1.57 2.29-7.33.61-14.65 1.27-22 1.9a17.88 17.88 0 0 1-3.39.1c-.95-.1-1.9.86-2.81 0 .67-.73 1.3-1.51 2-2.18a49.39 49.39 0 0 0 13.76-23c1.38-4.89 17.49-80.15 19.49-88.39a6.39 6.39 0 0 0-1.06-5.77 57.46 57.46 0 0 0-3.43-4.63 20.34 20.34 0 0 0-13-6.6 5.64 5.64 0 0 1-1.27-.38c-.05 0-.07-.2-.06-.3s0-.24.11-.27a1.65 1.65 0 0 1 .61-.25c5.29-.52 45.38-4 48.32-4.21h2a2.76 2.76 0 0 1 2.91 1.82c3.41 7 59 110.67 64.36 116a40.15 40.15 0 0 0 10.47 7.47 19.9 19.9 0 0 1 1.84.87c.89.57 2.38 0 2.81 1.41-1.1.11-2.2.27-3.31.32-7.69.32-48.48 2.3-52.54 2.59-1.58.11-3.17.1-4.75.05a1.07 1.07 0 0 1-1.06-1.41c1-5.3-.51-10.09-2.91-14.69-1.62-3.11-3.35-6.17-5-9.25a9.22 9.22 0 0 0-3.58-3.53 45.36 45.36 0 0 0-17-5.64 31 31 0 0 0-8.77-.25 25 25 0 0 0-11.85 5.29c-2.85 2.21-5.35 4.87-8 7.34a5.38 5.38 0 0 0-1.73 3.22c-.54 3.35-1.42 6.66-1.27 10.11zm23-35.56c4.66-1.46 9.19-3.2 12.52-7.11.94-1.1 1.26-1.95.55-3.28-2.56-4.79-17.21-32.66-18.11-34.22a1 1 0 0 0-.83-.41c-.22 0-.52.4-.57.67-.63 3.1-1.14 6.23-1.83 9.32-2.16 9.72-4.32 19.44-6.6 29.14-.49 2.08-.49 2.73 1.66 4.26a9.91 9.91 0 0 0 5.09 1.75c1.07.08 6.6.33 8.07-.12zM114 318.89a26.87 26.87 0 0 0 8.06.92 7.76 7.76 0 0 0 4.67-1.77c1.38-1 1.68-.87 2.88.37 1.79 1.85 2.54 4.24 3.22 6.62a12.42 12.42 0 0 0 .65 2.21c.74 1.51 1.28 3.12 2 4.66a8.17 8.17 0 0 0 1.48 2.62c2.19 2.08 3.45 4.75 5 7.23.36.57.6 1.24 1 1.78a17.75 17.75 0 0 1 2.09 2.58 22.74 22.74 0 0 1 .74 3.27c.29 1 .83 1.85 1.17 2.81a11.44 11.44 0 0 1 .56 2.26c.1.7-.52 1.12-1.06.74a14 14 0 0 1-2.12-1.67 94.63 94.63 0 0 0-11.18-9.87c-1.09-.81-2.15-1.68-3.29-2.4a77 77 0 0 0-20.29-9.25 108.76 108.76 0 0 0-17-3.18C89 328.41 57 328 59 345.66a11.16 11.16 0 0 0 5 7.34 29.42 29.42 0 0 0 7.85 3.95c2.26.69 4.65 1 7 1.5 4.2 1 8.47 1.4 12.72 2a187.81 187.81 0 0 1 21.24 4.55c2.3.61 4.65 1.05 6.9 1.78 5.39 1.74 10.8 3.45 15.65 6.47a26.44 26.44 0 0 1 6.05 5.39c1.69 2 3.78 3.67 4.84 6.07C153 400 149 411.09 148 413.82a35.27 35.27 0 0 1-2.53 4.79C131 450 83 449.67 80.26 449.61a73.34 73.34 0 0 1-24-4.16 38.58 38.58 0 0 1-3.92-2 59.33 59.33 0 0 0-5.47-2.68 9.11 9.11 0 0 0-7.54.3C36.12 442.63 22.57 410 21.87 408a.64.64 0 0 1 .25-.57c.28-.11.77-.2.9-.06a38.79 38.79 0 0 1 2.58 3.13 34.69 34.69 0 0 0 6.94 7.35c2.78 2.13 5.21 4.7 8.26 6.5 2.73 1.61 5.35 3.4 8.13 4.91 3.07 1.67 6.25 3.14 9.41 4.65a8.31 8.31 0 0 0 2.25.68c1.79.29 3.58.56 5.38.69 4 .28 7.93.85 11.86.62 7-.41 14-.54 20.73-3.09a40.06 40.06 0 0 0 13.1-7.66 34.51 34.51 0 0 0 4.06-5 3.72 3.72 0 0 0 .62-1.9 22.56 22.56 0 0 0-1.36-10c-1.15-2.87-3.43-4.74-5.87-6.43-3.89-2.7-8.35-4-12.91-5-7.63-1.68-15.28-3.23-22.88-5a71.06 71.06 0 0 1-11-3.51c-5.7-2.4-11.53-4.59-16.56-8.41a48 48 0 0 1-8-7.82 42.94 42.94 0 0 1-2.75-3.86c-7.01-12.22-.75-26.61 3.5-31.81a47.82 47.82 0 0 1 13.8-11.35 80 80 0 0 1 61.69-6.17zM1167.17 591.71c.14-5-11.34-67-13.4-70.94a23.18 23.18 0 0 0-6.13-7.19c-.44-.36-.94-.64-1.36-1a1.37 1.37 0 0 1 .33-2.46c1-.5 26.08-5.27 27.2-5.28a1.74 1.74 0 0 1 1.75 2.53 14.41 14.41 0 0 1-.9 1.83 16 16 0 0 0-1.87 7.16c-.21 4.55 10.53 55.22 11.27 58.87.33 1.66.54 3.34.74 5 .31 2.58.59 5.17.81 7.76a16.26 16.26 0 0 1-.09 3.05c-.35 3.26-.85 6.51-1.09 9.77a29.62 29.62 0 0 1-1.54 7.64 110 110 0 0 1-4.53 11.35 33.19 33.19 0 0 1-8.76 10.7 36.44 36.44 0 0 0-3.09 2.64 22.34 22.34 0 0 1-8.21 5.32c-3.78 1.51-7.65 2.82-11.53 4.06a24.49 24.49 0 0 1-4.68.75 99.42 99.42 0 0 1-10.11 1.09c-3.16 0-6.31.54-9.47.57-10.51.08-26.37-8-31.92-14.82a53.55 53.55 0 0 1-9-15.83c-.68-1.91-15.36-66-16.48-68.57a88.31 88.31 0 0 0-4.54-9.11 26.44 26.44 0 0 0-8.76-9.33 4.28 4.28 0 0 1-.82-1 5.39 5.39 0 0 1 1.16-.61c1.53-.39 51.11-8.71 54.13-9.15a21.27 21.27 0 0 1 4.06-.08 1.09 1.09 0 0 1 .79 1.77 19.13 19.13 0 0 1-1.59 2.2c-2.8 3.26-3.57 7.23-4 11.33v.34c-.4 4.78 10.42 62.48 13 72a23.33 23.33 0 0 0 1.27 3.51c.89 2 2 3.83 2.82 5.81 2.42 5.6 10.42 12.6 14.74 12.92 1.8.13 15.67-2.32 17.14-4.24a8.34 8.34 0 0 1 2-1.86c2.82-1.89 4.63-4.64 6.41-7.39a20.26 20.26 0 0 0 1.55-3.75 39.65 39.65 0 0 0 2.7-17.36z"/><path d="M854.12 187.52a76.08 76.08 0 0 0-7.76.72c-5.31 1-9.49 4.15-13.31 7.78a7.64 7.64 0 0 0-1.46 2.26c-1.52 3.17-3.07 6.32-4.44 9.55-1.51 3.54-2.87 7.1-2.74 11.11a11.71 11.71 0 0 0 2.08 6.67 7 7 0 0 1 .84 1.45c.06.14-.33.66-.5.65-4.4-.26-28.13-1.53-31.17-1.77-.19 0-.47-.18-.51-.32a.67.67 0 0 1 .27-.55c.85-.57 1.71-1.12 2.58-1.64a36.14 36.14 0 0 0 12.88-12.34c1.94-3.19 3.81-6.4 5.53-9.74 6.47-12.51 33.36-79.46 37-88.36a4.51 4.51 0 0 0-.53-4.71 19.56 19.56 0 0 0-8.23-6.91c-2.65-1.26-5.47-2.16-8.22-3.2-.63-.24-1.3-.38-1.94-.61-.18-.07-.3-.3-.45-.46.25-.14.5-.41.74-.39 4.63.34 52.37 3.71 55.88 3.84a2.73 2.73 0 0 1 2.93 2.22c.23.87.64 1.7.89 2.57 1.44 5 27.82 88.7 30.79 98.21a140 140 0 0 0 6.82 17.76 30.4 30.4 0 0 0 5.5 7.72 34.17 34.17 0 0 0 7.4 6.47c.26.15.4.5.59.75a3.91 3.91 0 0 1-1.15.25c-3.6-.33-51.61-4.41-53.42-4.49-3.77-.18-4-.49-2.37-3.77a6.87 6.87 0 0 0 .59-3.19 33.15 33.15 0 0 0-1.64-9.65c-1.33-4.68-2.7-9.36-4-14.06a9.3 9.3 0 0 0-2.81-4.54 34.05 34.05 0 0 0-14.31-7.49 46.45 46.45 0 0 0-12.35-1.79zm5.67-9.3c4.87.28 9.39-1.09 13.76-3.08 1.91-.87 2.09-1.42 1.54-3.5-.09-.33-.21-.65-.31-1q-4.84-15.93-9.68-31.85c-.73-2.38-1.55-4.74-2.4-7.08a14.12 14.12 0 0 0-1.11-2c-1.11.19-1.22 1.23-1.6 2-.82 1.62-1.55 3.28-2.26 4.94q-4.47 10.46-8.91 20.94c-1.77 4.17-3.56 8.33-5.28 12.52-.94 2.29-.74 2.9 1.32 4.21a18.56 18.56 0 0 0 3.31 1.72 27.48 27.48 0 0 0 11.62 2.19zM562.6 558.4a15.8 15.8 0 0 0-1.22-6.47c-.5-1.36-1.64-2.14-2.33-3.29-.45-.75-.28-1.42.53-1.53 1.23-.17 33.19.86 37.25 1.19a2.9 2.9 0 0 1 2.81 2.05c.18.54.4 1.06.59 1.59 2.63 7.23 33.86 96.28 37.2 104.94a62.87 62.87 0 0 0 3.38 7c1.74 3.25 4.43 5.74 7.12 8.14 1.58 1.41 3 3.07 4.89 4.12.14.08.3.39.25.5a.77.77 0 0 1-.52.39 19.67 19.67 0 0 1-4.69.34c-4-.59-46.52-1-49.12-1.17l-.33-.05c-.94-.17-1.46-1-.89-1.72a11.65 11.65 0 0 0 2.11-5.3 10.27 10.27 0 0 0 .18-3 54.91 54.91 0 0 0-2.3-11.6c-1-2.9-2-5.76-3-8.66a2.93 2.93 0 0 0-2.62-2.28c-2.13-.22-42.59-3.21-44.28-3.38a2.3 2.3 0 0 0-2.46 1.42c-2.78 5.45-5.59 10.91-6.68 17-.65 3.65-1.55 7.32-.68 11.1.32 1.41-.22 2.1-1.55 2.61-1.65.62-22.25-1.32-24.94-1.61-.47-.05-1.18-.5-1.25-.86s.37-1 .74-1.37c1.74-1.61 3.61-3.09 5.3-4.75 5.24-5.16 8.86-11.43 12-18 2.27-4.81 30-70.62 32.43-76.94.94-2.53 2.37-7.69 2.08-10.41zm20.58 68.15c4.13 0 4.17 0 2.88-3.82-2.7-8-11.49-33-13.15-37.44a10.1 10.1 0 0 0-.53-1.25.9.9 0 0 0-1.62-.12 14.91 14.91 0 0 0-1 1.79c-2.13 4.87-4.26 9.74-6.35 14.63-2.31 5.41-4.55 10.84-6.84 16.27-.88 2.09-1.81 4.15-2.65 6.25a1.36 1.36 0 0 0 1.11 2 14.91 14.91 0 0 0 1.69.14c1.85.13 25.33 1.55 26.47 1.55zM1156.52 250.4c8.22.27 16-1.71 23.45-4.87 5.41-2.29 10.68-5 15.19-8.87a16.18 16.18 0 0 1 1.65-1.2c.46-.3 1.06-.79 1.42-.08a1.7 1.7 0 0 1-.23 1.52c-2.12 2.51-4.25 5-6.5 7.4-2.48 2.64-5.16 5.09-7.64 7.73-3.72 4-7.33 8-11 12-.31.33-.64.65-.92 1a4.62 4.62 0 0 1-4.84 1.66q-10.35-1.86-20.71-3.62c-7.7-1.3-15.4-2.54-23.11-3.77q-11.89-1.91-23.8-3.76c-3.91-.61-7.84-1.13-11.75-1.73a28 28 0 0 1-3-.68c-.61-.16-.73-.63-.27-1 1.16-.9 2.32-1.82 3.53-2.65a22.22 22.22 0 0 0 9.12-13.08c2.67-10.07 15.22-76.45 16.52-86 .5-3.67.7-7.21-.39-10.74a20.06 20.06 0 0 0-7-10.2c-1.52-1.17-3.18-2.17-4.76-3.27a7 7 0 0 1-1-.92.33.33 0 0 1 0-.32c.12-.15.29-.35.46-.38a3.32 3.32 0 0 1 1 0q10.56 1.64 21.12 3.3c2.68.43 5.35 1 8 1.38 5.58.89 11.18 1.74 16.76 2.62 3.35.53 6.7 1.09 10.05 1.63 6.48 1 13 2.07 19.44 3.15 4.68.78 9.35 1.65 14 2.46 2.23.38 4.47.7 6.71 1.06a2.21 2.21 0 0 1 2 2 17.88 17.88 0 0 1 .47 2.32c.16 5.13 1.57 10.06 2.42 15.07.72 4.24 1.53 8.46 2.25 12.69a10.26 10.26 0 0 1 0 2.36c0 .16-.26.37-.44.42a.7.7 0 0 1-.61-.11c-.63-.8-1.24-1.61-1.8-2.46a97.42 97.42 0 0 0-10.84-13 26 26 0 0 0-7.77-5.41 67.37 67.37 0 0 0-11.37-4.47c-4.36-1.21-8.72-2.4-13.1-3.54a26.26 26.26 0 0 0-3.69-.55c-1.51-.17-2.11.16-2.45 1.65-1 4.3-6.68 33.14-6.83 34.6a1.52 1.52 0 0 0 1.1 1.54 3.06 3.06 0 0 0 .64.22c4 .74 8 1.45 12 2.21a60.41 60.41 0 0 0 10.14.81 11.89 11.89 0 0 0 8.57-3.48c2.19-2 3.07-1.77 3.75 1.22s1.17 6 1.7 9c.39 2.23.65 4.48 1.08 6.7.53 2.78 1 5.56 1.23 8.39s.94 5.34 1.45 8a8.89 8.89 0 0 1 .3 1.32 1.33 1.33 0 0 1-.39.81c-.07.07-.46 0-.6-.16a13.46 13.46 0 0 1-1.63-1.72c-5.49-7.56-13.2-11.87-21.74-15.07a47 47 0 0 0-9.22-2.13c-3.13-.5-6.23-1.16-9.34-1.74-1.78-.33-2.21-.13-2.66 1.67-1.1 4.39-9.72 41-10.83 45.25-.14.55-.34 1.08-.43 1.64a1 1 0 0 0 .82 1.28c1.1.27 2.2.55 3.32.71 4.59.65 9.18 1.32 13.79 1.85 2.44.26 4.84.23 7.21.34zM1198.71 326.61c1.36 0 2.72.06 4.08 0a4.32 4.32 0 0 1 4.59 3.23c1.12 3.21 2.44 6.34 3.52 9.56 2 5.81 4.24 11.47 6.73 17.06 1.29 2.89 2.49 5.82 3.64 8.77a27.44 27.44 0 0 1 1 3.6.84.84 0 0 1-.16.6 1.38 1.38 0 0 1-.89-.17c-1-.92-2-1.87-2.89-2.87-1.83-2-3.59-4.08-5.41-6.1-3.68-4.07-8.19-7.1-12.65-10.23a46.79 46.79 0 0 0-22.37-8.26c-1.15-.12-1.68.29-1.74 1.5-.07 1.47-.08 2.95-.08 4.42v30.6c0 3.59.23 3.84 3.87 3.83a54.69 54.69 0 0 0 8.81-.43A14.22 14.22 0 0 0 1198 376c.55-.72 1-1.52 1.57-2.22a2.12 2.12 0 0 1 3.48 0 7.36 7.36 0 0 1 1.06 1.73c.55 1.24 1.06 2.5 1.53 3.78 2.66 7.23 5.28 14.47 8 21.69.83 2.23 1.79 4.4 2.67 6.61a10.06 10.06 0 0 1 .58 1.93 1.09 1.09 0 0 1-.32.9 1 1 0 0 1-.91 0c-.8-.62-1.54-1.33-2.29-2-1.6-1.43-3.15-2.94-4.81-4.29a38.19 38.19 0 0 0-16.8-7.7 51.7 51.7 0 0 0-12.13-1.18c-.91 0-1.81.09-2.71.18a1.35 1.35 0 0 0-1.28 1.34c-.07.68-.09 1.36-.1 2 0 3.62-1.56 48.41-1.72 49.86-.13 1.22.18 1.65 1.46 1.68a23 23 0 0 0 2.71-.1c1.91-.17 3.82-.37 5.73-.58a30.17 30.17 0 0 0 3-.42 51.52 51.52 0 0 0 21.08-9.82 115.47 115.47 0 0 0 16.24-15.9c.74-.86 1.53-1.67 2.35-2.45.2-.19.59-.18.89-.26a4.39 4.39 0 0 1 .21.94 5.66 5.66 0 0 1-1.24 3.45c-1.08 1.45-2.25 2.84-3.17 4.39-3.78 6.32-7.54 12.65-11.18 19-1.85 3.24-3.49 6.61-5.11 10a3 3 0 0 1-3.1 2c-9.85-.3-63.58 0-67.89-.08a23.25 23.25 0 0 1-3.71-.3c-1.82-.32-1.91-.59-1-2.18a12.87 12.87 0 0 1 1-1.75c2.79-3.5 3.77-7.67 4.47-11.95.57-3.47 1.6-87.29 1.42-99.87a19.7 19.7 0 0 0-6.09-14.3c-.33-.32-.69-.59-1-.93-.64-.72-1.76-1.1-1.76-2.31a25.41 25.41 0 0 1 2.93-.42c2.05 0 55.99.14 66.65.14zM377.61 453.91c-2.59-.2-23.21-1.22-24.3-1.49a.6.6 0 0 1-.25-1.06c.86-.9 1.76-1.76 2.67-2.61a42.14 42.14 0 0 0 9.7-13 12.73 12.73 0 0 0 .73-1.53C373 424 391.35 338.66 392 335.91a9.26 9.26 0 0 0-1.27-7.73 25.46 25.46 0 0 0-5.91-6.46c-.36-.28-.73-.54-1.06-.85-.82-.76-.57-1.68.57-2a6.29 6.29 0 0 1 1.66-.31c3.39-.06 28.19.51 35.67.52 5.37 0 4.5.54 5.42 4.24 1.67 6.71 36.17 113.26 36.74 114.85 1.7 4.73 5 8.28 8.56 11.65 1.31 1.25 2.72 2.39 4 3.63a.91.91 0 0 1-.55 1.54 9.13 9.13 0 0 1-1.69.15c-4-.11-42.17-.68-44.07-.84s-2.55-1.24-1.89-3.06a19.83 19.83 0 0 0-.09-13.3c-1.75-5.38-3.52-10.75-5.18-16.16a10.48 10.48 0 0 0-3.38-4.89c-4.27-3.8-9.45-4.65-14.79-5.12a30.41 30.41 0 0 0-10.74 1.37 10.56 10.56 0 0 0-4.69 2.62c-1.29 1.26-2.76 2.34-4.1 3.55a8.1 8.1 0 0 0-2.37 4c-.89 3.29-1.36 6.64-2 10-.75 3.94-.1 7.64.84 11.39a23.59 23.59 0 0 0 3.3 7c.64 1 .25 1.81-.94 1.86-2.15.09-4.3 0-6.45 0zm22.22-53.18c1.45-.21 2.9-.39 4.34-.62A26.21 26.21 0 0 0 412 397c2.19-1.15 2.33-1.62 1.59-4.1-.06-.22-.14-.43-.21-.65q-2.81-8.72-5.62-17.43c-.48-1.51-.84-3.06-1.34-4.56-1-3.11-2.13-6.2-3.22-9.29-.34-1-.73-1.9-1.15-2.82a1.11 1.11 0 0 0-.69-.61c-.19 0-.55.33-.64.58a25.32 25.32 0 0 0-.76 2.6c-.76 3.19-1.42 6.41-2.27 9.58-1.79 6.67-3.67 13.31-5.52 20-.51 1.85-1.08 3.7-1.51 5.57s-.1 2.62 1.79 3.44a22.74 22.74 0 0 0 7.39 1.43z"/><path d="M320 370.44a1.36 1.36 0 0 0 1.46 1.5c.68 0 16-2 18.69-5.69a8.79 8.79 0 0 1 .63-.8 1 1 0 0 1 1.5 0 9.75 9.75 0 0 1 1.81 2.39c.83 1.74 12.05 30 12.84 32.15a1.13 1.13 0 0 1-.15.93c-.35.44-.81.25-1.18-.05a19.75 19.75 0 0 1-2.56-2.22c-2.58-3-5.81-5.37-8.59-8.18a13.89 13.89 0 0 0-5.43-3.35c-5.66-2-11.52-2.25-17.44-1.91-1.43.08-1.76.45-1.84 1.91-.3 5.53-2.11 47.57-2.49 51.16a1.37 1.37 0 0 0 1.21 1.72 15.23 15.23 0 0 0 5.69.25 40.64 40.64 0 0 0 8.47-2.37 108.76 108.76 0 0 0 18.53-10.6c2.78-1.95 5.45-4 8.2-6a11 11 0 0 1 2.09-1.06c.14-.06.45.11.58.26a1.12 1.12 0 0 1 .15.6.61.61 0 0 1-.12.31L349 443.57c-1.49 2.54-3.08 5-4.45 7.62a3.22 3.22 0 0 1-3.28 1.85c-4.08 0-65.45-.93-66.9-1.16a3.32 3.32 0 0 1-1.45-.79 1.31 1.31 0 0 1 0-2c1.73-1.63 3.46-3.25 5.15-4.91 2.84-2.78 4.14-6.33 5.43-10C287 424 287 345 284.14 336a30 30 0 0 0-5.55-14 13.34 13.34 0 0 0-5.33-4.12c-.16-.07-.25-.33-.37-.5.16-.11.33-.31.49-.32 3.17-.08 61.95.69 68 .76h1.7c1.43-.06 14.72 32.65 15.77 35.15.48 1.15.93 2.31 1.34 3.48.09.27-.07.63-.11.94-.41-.07-.91 0-1.2-.23a8 8 0 0 1-1.69-1.65 62.5 62.5 0 0 0-6.85-7.53c-2.24-2.23-4.37-4.59-6.75-6.66a29.31 29.31 0 0 0-5.86-4 66 66 0 0 0-8.77-3.64 24.66 24.66 0 0 0-5.67-.94c-1.8-.16-2.12.21-2.16 2.14M768.42 549.69a7.58 7.58 0 0 1 2.31.37c.22.07.35.75.31 1.12s-.39.55-.66.73a11.5 11.5 0 0 1-2.6 1.57 29.26 29.26 0 0 0-7.69 4.14q-2.91 2-5.76 4.14c-1.18.88-2.28 1.86-3.42 2.79-2.62 2.15-5.3 4.23-7.82 6.49-1.33 1.2-25.72 32.1-29.67 37-1.27 1.59-2.42 3.28-3.65 4.9a6 6 0 0 0-.9 2.87c-.78 4.83-1.36 40.15-1.44 47.86a29.7 29.7 0 0 0 1 7.73 21.62 21.62 0 0 0 2.09 4.23 1.33 1.33 0 0 1-.84 2.12 9.66 9.66 0 0 1-2.66.43c-6.8 0-31.93-.42-37.68-.74a9.75 9.75 0 0 1-2-.31 1.1 1.1 0 0 1-.76-1.79c.73-1.28 1.42-2.59 2.26-3.8 2.84-4.07 3.74-8.71 3.88-13.51s-.65-24.06-.44-31.93c.06-2.09-1-3.64-2.16-5.2-4.39-5.9-8.74-11.84-13.14-17.74-3.11-4.18-6.28-8.31-9.43-12.46-.27-.36-.62-.67-.86-1.05-4-6.34-9-11.89-13.45-17.91-2.95-4-5.8-8.1-9-11.95a46.4 46.4 0 0 0-5.75-5.25c-.94-.81-2-1.5-3-2.27a4.4 4.4 0 0 1-.94-1 1.46 1.46 0 0 1 1.06-2.29 12.21 12.21 0 0 1 3.05 0c3.59.63 50.68 1.24 54.42 1.26a18.35 18.35 0 0 1 2.38.13 1.91 1.91 0 0 1 1.19 3.11c-.33.46-.76.84-1.11 1.28a8.77 8.77 0 0 0-.09 10.74c3.85 5.18 19.78 25.51 23.73 30.62.48.62.86 1.33 1.29 2 .63 1 1.13 1.06 1.8.28s1.43-1.75 2.17-2.62c5.2-6.13 25.86-30.32 26.81-31.58a27.82 27.82 0 0 0 3-4.5 7.74 7.74 0 0 0 .08-7.5c-.86-1.57-.65-1.87 1.14-2.22a18 18 0 0 1 3.37-.33c4.87.02 24.59.01 29.58.04zM158.49 587.82c-2.81-.29-5.44.48-8.1 1a7.19 7.19 0 0 0-4.57 3.27c-2.19 3.28-9 15.72-10.08 18.7-.65 1.82-1.34 3.61-.82 5.62a2.92 2.92 0 0 1-.19 1.32 1.41 1.41 0 0 1-1.44 1.2 4.27 4.27 0 0 1-1.35-.07c-4.55-1.49-17.94-3.59-19.9-4.13a1.59 1.59 0 0 1-.8-.94c-.07-.2.2-.65.44-.82 1.48-1 3.08-1.92 4.48-3.05 2.38-1.91 4.65-3.95 6.94-6a6.77 6.77 0 0 0 1-1.33c2.41-3.56 4.84-7.11 7.19-10.7 1-1.51 1.85-3.11 2.69-4.71 1.64-3.1 35.9-71.12 37.46-74a22.17 22.17 0 0 0 2.33-14.47 8.57 8.57 0 0 0-2.2-4.5 3.5 3.5 0 0 1-.44-1.19c.51-.13 1.05-.46 1.52-.37 6.1 1.16 26.13 4.66 26.68 4.79a3 3 0 0 1 2.49 2.49c.55 3.23 20 121.83 22 126.63a34.48 34.48 0 0 0 3.09 5.26c.62 1 1.39 1.92.6 3.08s-1.84.74-2.82.56c-2.78-.49-33.43-5.6-38.11-6.39a29.54 29.54 0 0 1-3.91-1.09.76.76 0 0 1-.45-1.1 2.08 2.08 0 0 1 .34-.58c3.19-3.82 1.48-20.73 1.15-24.67a7.81 7.81 0 0 0-2.86-5.19c-1.06-1-2.26-1.87-3.41-2.78a21.44 21.44 0 0 0-10.29-4.66c-2.9-.41-5.72-1.42-8.66-1.18zm12.25-10.93a20.16 20.16 0 0 0 3 0 36.53 36.53 0 0 0 4.27-1 1.9 1.9 0 0 0 1.5-2c0-.79-.05-1.58-.13-2.36-.17-1.68-3.48-25.57-4-29.83a18.4 18.4 0 0 0-.62-2.94c-.13-.47-1.13-.62-1.48-.3a3.18 3.18 0 0 0-.66.76c-2.29 4.28-14 28.2-15.14 30.67-.55 1.23-.49 1.61.48 2.35 3.84 2.83 7.77 5.24 12.78 4.65zM831.76 613.3a67.06 67.06 0 0 1 4.36-24.57 112.42 112.42 0 0 1 5.21-11.8 46.72 46.72 0 0 1 6.53-9.5 67.15 67.15 0 0 1 35.94-21.94 99.8 99.8 0 0 1 13.35-2.4 51.15 51.15 0 0 1 21.49 2c4.54 1.51 8.93 3.24 12.77 6.17.54.41 1.06.07 1.08-.69 0-.45-.09-.9-.1-1.35s.38-.8.87-.59a4.41 4.41 0 0 1 2.49 2.19c1.54 3.39 14.43 32.88 15.87 35.44a13.37 13.37 0 0 1 1.77 7.43.69.69 0 0 1-.32.52.71.71 0 0 1-.63-.12 27.11 27.11 0 0 1-2.62-2.65c-1.61-2-3.21-4.1-4.65-6.27-1.78-2.68-4.28-4.66-6.49-6.9-3.34-3.37-7-6.48-10.58-9.55a57.63 57.63 0 0 0-13.41-8.59c-3.35-1.52-6.84-1.82-10.5-2.39-11.19-1.74-21.41 5.78-24 8.79C861 592 867 637 893 649.68a49.53 49.53 0 0 0 10.73 4.15 35.9 35.9 0 0 0 13.18.33 28.7 28.7 0 0 0 9.09-2.46c1.62-.8 16-8.7 21.41-24.41.27-.62.52-1.26.83-1.86a.64.64 0 0 1 .53-.27.87.87 0 0 1 .5.39 1 1 0 0 1 .19.64c-.61 3.33-.32 6.79-1.43 10a6 6 0 0 1-.24.64 70.53 70.53 0 0 1-6.7 11.76 64.38 64.38 0 0 1-4.72 5.77 52 52 0 0 1-11 8.45 65.2 65.2 0 0 1-17.48 7.34c-.65.18-1.28.45-1.92.66a24.84 24.84 0 0 1-7.31 1.4c-2.71.06-5.42.57-8.11.48a91.5 91.5 0 0 1-18.15-2.18c-6-1.42-11.07-4.55-15.87-8.21-2.07-1.58-4-3.29-6-5a44.29 44.29 0 0 1-10.67-14.78q-2.83-6.36-5.28-12.88a43.13 43.13 0 0 1-2.82-16.34z"/><path d="M257.18 316.36c2.19 0 2.53.23 3.3 2.18.08.21.14.43.21.65 3.14 9.71 7.1 19.1 11.08 28.48a35.53 35.53 0 0 1 1.34 4.55.63.63 0 0 1-.26.56c-.3.07-.76.12-.92 0-.79-.81-1.48-1.71-2.24-2.55-3.78-4.23-20.69-23.23-40.6-22.8a14 14 0 0 0-2.38-.05c-1 0-1.5.38-1.54 1.4-.08 2.13-.76 95.57-.7 105.54 0 5.52 1 10.82 4.55 15.33a2.48 2.48 0 0 1 .2.27c.49.85.12 1.62-.91 1.63-2.94 0-5.89 0-8.83-.07-1.58 0-3.16-.28-4.74-.29-10.43-.07-20.85-.09-31.28-.16a19.89 19.89 0 0 1-3.36-.29 1.11 1.11 0 0 1-.59-1.86c.64-.79 1.37-1.51 2.05-2.26a14.19 14.19 0 0 0 3.62-6.43c5.82-9.18 2-107 1.94-109.51-.06-3.3 0-3.34-3.43-3.81a42.48 42.48 0 0 0-8.81-.09c-2.81.2-5.58.82-8.37 1.29a4.25 4.25 0 0 0-1.24.47c-1.2.63-2.37 1.33-3.58 1.95a34.27 34.27 0 0 0-8.57 6.58c-1.53 1.52-3.07 3-4.66 4.47a1.45 1.45 0 0 1-1.19.1c-.2-.06-.39-.6-.34-.87a10.94 10.94 0 0 1 .63-2.26c1.22-2.92 2.59-5.77 3.69-8.73a41.91 41.91 0 0 0 2.38-8.11 18.14 18.14 0 0 1 .62-2.64c1.19-3.8 1.56-4.06 5.46-4.09 1.15-.04 92.48 1.39 97.47 1.42zM1017.39 647.11c5.58-.85 11.17-1.7 16.75-2.57 1.23-.19 2.44-.47 3.65-.76a17.1 17.1 0 0 0 11.73-9.51 57.34 57.34 0 0 0 4.68-14.15 117.57 117.57 0 0 0 2.21-14.41 2.08 2.08 0 0 1 0-.34c.27-1.06.19-2.71 1.36-2.82 1.51-.14 1.69 1.57 2 2.73.56 2.42.91 4.89 1.48 7.31s1.21 4.58 1.85 6.87a26.21 26.21 0 0 1 1.27 4.56c.42 4.88 1.87 9.55 2.7 14.34.5 2.9 1 5.79 1.51 8.69a11.63 11.63 0 0 1 .13 1.69c.06 2.91-1.16 4.65-4 4.89-3.42.29-85.07 10.6-89.33 11.06-1.56.17-3.11.48-4.67.7a2.93 2.93 0 0 1-1-.07.74.74 0 0 1-.49-.35.73.73 0 0 1 .1-.62 13.73 13.73 0 0 1 1.4-1.47c5.07-4.43 6.49-10.13 5.85-16.58-.21-2.14-.28-4.29-.48-6.43-.36-3.94-7.93-73.17-8.91-77.11a42.43 42.43 0 0 0-5-12.58 33.63 33.63 0 0 0-6-7.29c-.84-.75-1.73-1.46-1.77-2.76a1.66 1.66 0 0 1 1.39-2 23.66 23.66 0 0 1 2.66-.54c2.47-.3 43-5.08 46.81-5.5a12.37 12.37 0 0 1 1.7 0c2.22.06 3 1.3 2 3.39-.42.93-.84 1.85-1.29 2.77a26.36 26.36 0 0 0-1.88 6.1c-1.13 5.05 7.84 97.15 7.86 99.54a15.8 15.8 0 0 0 .09 1.7c.11.95.56 1.34 1.58 1.39h2zM1230.59 460.58a3.46 3.46 0 0 1-1 0 2.86 2.86 0 0 1-1.41-.7c-.41-.57.16-1 .59-1.38.84-.76 1.66-1.54 2.5-2.3a20.76 20.76 0 0 0 5.83-9.43 36.22 36.22 0 0 0 .84-4.31 4.38 4.38 0 0 0 0-.68c.28-11.32.76-88.35.67-92-.15-6.81-2.8-12.77-6.57-18.28a22.06 22.06 0 0 0-3.17-3c-.35-.33-1.3-.36-.86-1.1a1.88 1.88 0 0 1 1.48-.64c4.28.24 8.56-.34 12.87.25 3.34.46 6.79.16 10.19.18l31.62.14a8.17 8.17 0 0 1 1.7.07c1.27.28 2.51.65 3.77 1-.92.82-1.84 1.65-2.77 2.45a21.55 21.55 0 0 0-6.58 9.73 37.08 37.08 0 0 0-1.94 11c-.07 3.85-1.53 81.43-1.52 92.42 0 3.07.45 3.56 3.5 3.63a33.29 33.29 0 0 0 11-1.79c1.29-.42 2.55-.94 3.84-1.38 4.64-1.57 8.8-4.06 13-6.55s7.73-6.22 11.79-9.08c3.41-2.4 6.56-5.18 9.73-7.89a21.41 21.41 0 0 1 4.22-2.81 35.23 35.23 0 0 0 3.11-2 3.82 3.82 0 0 1 1.17-.66 1.52 1.52 0 0 1 1.21.22 1.19 1.19 0 0 1-.1 1.13 19.35 19.35 0 0 1-1.94 1.9c-1.34 1.22-2.71 2.39-4 3.63q-8.36 7.65-16.66 15.49a46.22 46.22 0 0 0-3.45 3.73c-4.24 5-8.71 9.82-12.6 15.13-3 4.09-3.07 4-8.19 3.94-8.46-.04-59.46-.04-61.87-.06zM343.42 640.6a33.21 33.21 0 0 0 12.07-1.37 32.68 32.68 0 0 0 14.25-9.49 64.81 64.81 0 0 0 7.91-11.4 18.69 18.69 0 0 1 1.47-2.28c.24-.3.82-.62 1.1-.52a2 2 0 0 1 1.16 1 3.85 3.85 0 0 1 0 2c-2.08 8.46-4.22 16.91-6.31 25.36-.41 1.64-.69 3.31-1 5s-.74 3.55-1.17 5.3-.82 2.25-2.83 2.16-72.55-9.79-73.55-10c-2-.44-2.6-1.68-1.25-3.05 4.82-4.9 6.63-11.23 8.52-17.52 1-3.47 16.33-81.23 16.65-84.94.11-1.24.46-2.46.48-3.69 0-3.06 0-6.12-.12-9.17a11 11 0 0 0-1-3.22c-.41-1.05-1-2-1.41-3.09-.35-.81 0-1.29.93-1.26s1.8.13 2.7.25c2.58.34 5.16.65 7.72 1.07s5.33 1 8 1.52c.77.15 1.53.4 2.31.48 2.58.27 5.18.39 7.76.72 5.27.68 10.52 1.45 15.77 2.22a8.48 8.48 0 0 1 2.27.69 2.25 2.25 0 0 1 .78 3.64 9.1 9.1 0 0 1-.74.7 29.83 29.83 0 0 0-8.27 13.06c-1.24 3.75-20.57 87-21.73 91.41s0 4 3.17 4.39a33.85 33.85 0 0 0 4.36.03zM1232.87 158c-.86-3.81-2.39-7.33-5.56-9.89a8.44 8.44 0 0 1-1.19-1.21 3.93 3.93 0 0 1-.42-.88c.3-.09.62-.29.9-.24 4.68.82 9.36 1.6 14 2.52q16.82 3.31 33.61 6.72c2.55.51 5.09 1.07 7.61 1.72a34.83 34.83 0 0 1 3.83 1.38.69.69 0 0 1 .14 1.13 34.16 34.16 0 0 1-3.11 2.06c-3.88 2.12-6.18 5.58-7.94 9.43-1.08 2.36-1.89 4.85-2.82 7.28a9 9 0 0 0-.52 1.61c-1.29 7.49-22.67 81.73-23.61 88.48a17 17 0 0 0 3 12.89c.33.46.7.89 1 1.37a.72.72 0 0 1 .08.62.7.7 0 0 1-.6.19c-3.33-.62-6.67-1.21-10-1.9-8-1.64-15.94-3.33-23.92-5l-13-2.68a12.24 12.24 0 0 1-2-.51c-1.3-.51-2.79-.56-3.89-1.55l3.27-2.33c4.84-3.47 8.34-7.84 9.89-13.75 2.26-8.65 20.74-82.5 21.4-86.63a57.62 57.62 0 0 0-.15-10.83zM272.89 643c-2.6-.34-4.74-.57-6.86-.91-7.81-1.26-15.61-2.56-23.42-3.83-1.23-.2-2.48-.24-3.69-.52a1.92 1.92 0 0 1-1.1-1.09c-.11-.27.24-.92.56-1.12a15.87 15.87 0 0 0 4.24-4.35 13.17 13.17 0 0 0 2.33-5.89c.67-4.23 17.23-92.67 17.76-95.43a24.29 24.29 0 0 0-2.68-16.7c-.49-.91-1.73-1.86-.79-3 .77-.94 1.92-.25 2.88-.07 7.78 1.43 15.59 2.73 23.32 4.38 4 .85 8.08 1 12.06 1.88a43.88 43.88 0 0 1 4.92 1.24c.91.31 2.1.85 2.42 1.61.45 1.05-.93 1.66-1.58 2.36a27.63 27.63 0 0 0-6.63 13.55c-1.63 7.63-19.37 88.23-19.88 90.78a27.49 27.49 0 0 0 .42 14.08c.47 1.45.28 1.88-1.08 2.32a30.09 30.09 0 0 1-3.2.71zM673 393.28c-.31 3.15-.6 6.29-1 9.44-.1.92-.51 1.2-1.39 1-2.2-.51-4.4-1.05-6.58-1.66a31.61 31.61 0 0 0-7.68-1.3c-5.19-.14-9 2.13-11.14 6.8-2.68 5.88-2.48 11.81 1.41 17.07 3.75 5.08 8.87 7.57 15.42 6.33a25.76 25.76 0 0 0 5.83-1.74 60.59 60.59 0 0 0 18.3-12.22 164.18 164.18 0 0 0 12.26-13.6 17.41 17.41 0 0 1 2.38-2.4 1.32 1.32 0 0 1 1.24 0 1.27 1.27 0 0 1 .39 1.15 11.48 11.48 0 0 1-1.22 2.41c-1.67 2.56-24.58 38.76-25.42 40.09a5.77 5.77 0 0 1-2 2.27c-1 .47-1.71-.82-2.52-1.34a10.25 10.25 0 0 0-7.89-1.1 76.65 76.65 0 0 1-17.58 1.16 32.66 32.66 0 0 1-22.48-9c-5.35-5.07-8.28-11.23-7.9-18.78.47-9.15 4.6-16.41 11.36-22.34.59-.52 1.27-.95 1.88-1.46 1.08-.91 1-1 .08-2.12a44.08 44.08 0 0 1-4.3-5.22 19.62 19.62 0 0 1-3.06-14.25c.25-1.44.06-3 .49-4.37 1.91-6.07 5-11.41 10.31-15.19a42.27 42.27 0 0 1 26.48-8.06c3 .09 6.11-.15 9.12.7a24.24 24.24 0 0 1 5.7 2.15c.39.23.8.43 1.21.63 2.37 1.13 3.15.89 4.77-1.4.63-.89.74-.89 1.47-.23a8.06 8.06 0 0 1 2.44 4c1.7 6.11 3.41 12.21 5.2 18.29.74 2.49 1.7 4.91 2.56 7.36a11.19 11.19 0 0 1 .5 1.26c.31 1.43.6 2.87.85 4.31s1.71 2.31 1.64 3.86v.64c-.28-.06-.65 0-.84-.2a14.29 14.29 0 0 1-1.87-2c-3.73-5.11-7.35-10.31-11.15-15.37-4.08-5.44-9.34-9.18-16.14-10.5a15.13 15.13 0 0 0-6.72.06 12.46 12.46 0 0 0-8 6.37c-2.3 4.11-3.34 8.37-1.67 13a12.71 12.71 0 0 0 9.2 8.29 16.48 16.48 0 0 0 9 .25c.75-.23 1.49-.51 2.24-.76s1.71-.61 2.59-.83a1.44 1.44 0 0 1 1.9 1.37 24 24 0 0 1 .12 2.71v4.42z"/></svg>