<?xml version="1.0" standalone="no"?>
<!DOCTYPE svg PUBLIC "-//W3C//DTD SVG 20010904//EN"
 "http://www.w3.org/TR/2001/REC-SVG-20010904/DTD/svg10.dtd">
<svg version="1.0" xmlns="http://www.w3.org/2000/svg"
 width="616.000000pt" height="595.000000pt" viewBox="0 0 616.000000 595.000000"
 preserveAspectRatio="xMidYMid meet">
<metadata>
Created by potrace 1.15, written by Peter Selinger 2001-2017
</metadata>
<g transform="translate(0.000000,595.000000) scale(0.100000,-0.100000)"
fill="#000000" stroke="none">
<path d="M0 2975 l0 -2975 3080 0 3080 0 0 2975 0 2975 -3080 0 -3080 0 0
-2975z m6139 2951 c8 -10 10 -790 9 -2962 l-3 -2949 -3054 -3 c-2249 -1 -3057
1 -3067 9 -12 10 -14 492 -14 2959 0 1620 3 2950 7 2953 3 4 1380 7 3058 7
2555 0 3054 -2 3064 -14z"/>
<path d="M525 5893 c-215 -29 -390 -179 -450 -387 -48 -167 29 -361 192 -487
71 -54 145 -84 241 -99 45 -7 901 -10 2612 -8 2443 3 2547 4 2600 21 186 63
314 192 365 371 35 122 3 265 -84 379 -88 115 -203 184 -343 207 -60 9 -5060
13 -5133 3z"/>
<path d="M525 3463 c-215 -29 -390 -179 -450 -387 -48 -167 29 -361 192 -487
71 -54 145 -84 241 -99 45 -7 901 -10 2612 -8 2443 3 2547 4 2600 21 186 63
314 192 365 371 35 122 3 265 -84 379 -88 115 -203 184 -343 207 -60 9 -5060
13 -5133 3z"/>
<path d="M525 1033 c-215 -29 -390 -179 -450 -387 -48 -167 29 -361 192 -487
71 -54 145 -84 241 -99 45 -7 901 -10 2612 -8 2443 3 2547 4 2600 21 186 63
314 192 365 371 35 122 3 265 -84 379 -88 115 -203 184 -343 207 -60 9 -5060
13 -5133 3z"/>
</g>
</svg>
